<svg width="347" height="90" viewBox="0 0 347 90" fill="none" xmlns="http://www.w3.org/2000/svg">
<path d="M135.839 73.1892C130.33 73.1892 125.683 72.4101 121.899 70.852C118.171 69.2939 115.361 67.0958 113.469 64.2577C111.577 61.3641 110.631 57.9696 110.631 54.0742V53.5734H119.646V54.9089C119.646 57.1348 120.146 58.999 121.148 60.5015C122.15 61.9484 123.819 63.0613 126.156 63.8404C128.494 64.5638 131.721 64.9255 135.839 64.9255C139.401 64.9255 142.239 64.6751 144.353 64.1743C146.468 63.6178 147.97 62.7831 148.861 61.6701C149.807 60.5015 150.28 59.0547 150.28 57.3296C150.28 54.8811 149.501 53.1004 147.942 51.9874C146.384 50.8745 143.852 49.9841 140.347 49.3163L126.657 47.0626C123.541 46.4505 120.759 45.5601 118.31 44.3915C115.862 43.1673 113.942 41.5535 112.55 39.5502C111.215 37.4912 110.547 34.9314 110.547 31.8708C110.547 29.8675 110.992 27.892 111.883 25.9443C112.773 23.9966 114.164 22.2437 116.056 20.6856C117.948 19.1275 120.397 17.9032 123.402 17.0128C126.462 16.0668 130.191 15.5938 134.587 15.5938C140.04 15.5938 144.52 16.4285 148.026 18.098C151.532 19.7674 154.119 22.049 155.789 24.9426C157.514 27.7807 158.376 31.0361 158.376 34.7088V35.2096H149.445V34.1245C149.445 31.843 148.944 29.9509 147.942 28.4484C146.941 26.8903 145.299 25.7495 143.018 25.0261C140.736 24.247 137.648 23.8575 133.752 23.8575C130.358 23.8575 127.603 24.1357 125.489 24.6922C123.43 25.2487 121.927 26.0834 120.981 27.1964C120.035 28.2537 119.562 29.6449 119.562 31.3699C119.562 32.9281 119.896 34.208 120.564 35.2096C121.232 36.2113 122.261 37.0182 123.652 37.6303C125.043 38.1868 126.824 38.7154 128.994 39.2163L142.6 41.5535C146.329 42.2213 149.417 43.2229 151.866 44.5585C154.37 45.894 156.234 47.5913 157.458 49.6502C158.682 51.7092 159.295 54.102 159.295 56.8288C159.295 59.6668 158.488 62.3379 156.874 64.8421C155.26 67.3462 152.728 69.3773 149.278 70.9355C145.828 72.438 141.348 73.1892 135.839 73.1892ZM185.561 72.3545H174.376L161.938 30.8691H171.287L178.215 54.4081L180.135 65.0925H180.803L183.891 53.5734L192.572 30.8691H204.091L212.856 53.5734L215.944 65.0925H216.612L218.532 54.4081L225.46 30.8691H234.642L222.038 72.3545H210.853L201.754 48.4816L198.582 38.2981H197.915L194.743 48.4816L185.561 72.3545ZM248.236 72.3545H239.221V30.8691H248.236V72.3545ZM248.236 26.0278H239.221V16.4285H248.236V26.0278ZM276.2 73.1892C269.522 73.1892 264.347 71.9093 260.674 69.3495C257.057 66.7897 255.248 63.117 255.248 58.3313V58.0809H264.263V58.7486C264.263 61.4754 265.154 63.3674 266.934 64.4247C268.771 65.4264 271.859 65.9272 276.2 65.9272C280.262 65.9272 283.017 65.5098 284.463 64.6751C285.966 63.7847 286.717 62.4214 286.717 60.585C286.717 58.8599 286.133 57.6357 284.964 56.9123C283.851 56.1888 281.792 55.6324 278.787 55.2428L267.435 53.7403C263.484 53.2395 260.396 52.1265 258.17 50.4015C255.944 48.6207 254.831 45.9775 254.831 42.4717C254.831 40.0232 255.555 37.8807 257.001 36.0444C258.448 34.1523 260.618 32.6777 263.512 31.6204C266.406 30.5631 269.967 30.0344 274.196 30.0344C278.426 30.0344 282.043 30.5909 285.048 31.7038C288.108 32.8168 290.446 34.4862 292.059 36.7121C293.729 38.938 294.564 41.6926 294.564 44.9758V45.2262H285.632V44.7254C285.632 43.1116 285.298 41.7482 284.63 40.6353C283.963 39.5223 282.766 38.6876 281.041 38.1311C279.372 37.519 277.007 37.213 273.946 37.213C270.106 37.213 267.435 37.6581 265.933 38.5485C264.43 39.4389 263.679 40.8579 263.679 42.8056C263.679 44.4193 264.236 45.5879 265.349 46.3114C266.461 47.0348 268.548 47.6191 271.609 48.0643L281.208 49.3998C286.105 50.0119 289.722 51.2084 292.059 52.9891C294.397 54.7698 295.565 57.3853 295.565 60.8354C295.565 63.3952 294.758 65.6211 293.145 67.5131C291.531 69.3495 289.277 70.7685 286.383 71.7702C283.49 72.7162 280.095 73.1892 276.2 73.1892ZM321.685 73.1892C315.008 73.1892 309.832 71.9093 306.16 69.3495C302.543 66.7897 300.734 63.117 300.734 58.3313V58.0809H309.749V58.7486C309.749 61.4754 310.639 63.3674 312.42 64.4247C314.256 65.4264 317.345 65.9272 321.685 65.9272C325.748 65.9272 328.502 65.5098 329.949 64.6751C331.451 63.7847 332.203 62.4214 332.203 60.585C332.203 58.8599 331.618 57.6357 330.45 56.9123C329.337 56.1888 327.278 55.6324 324.273 55.2428L312.921 53.7403C308.97 53.2395 305.881 52.1265 303.655 50.4015C301.43 48.6207 300.317 45.9775 300.317 42.4717C300.317 40.0232 301.04 37.8807 302.487 36.0444C303.934 34.1523 306.104 32.6777 308.998 31.6204C311.891 30.5631 315.453 30.0344 319.682 30.0344C323.911 30.0344 327.528 30.5909 330.533 31.7038C333.594 32.8168 335.931 34.4862 337.545 36.7121C339.214 38.938 340.049 41.6926 340.049 44.9758V45.2262H331.118V44.7254C331.118 43.1116 330.784 41.7482 330.116 40.6353C329.448 39.5223 328.252 38.6876 326.527 38.1311C324.857 37.519 322.492 37.213 319.432 37.213C315.592 37.213 312.921 37.6581 311.418 38.5485C309.916 39.4389 309.165 40.8579 309.165 42.8056C309.165 44.4193 309.721 45.5879 310.834 46.3114C311.947 47.0348 314.034 47.6191 317.094 48.0643L326.694 49.3998C331.591 50.0119 335.208 51.2084 337.545 52.9891C339.882 54.7698 341.051 57.3853 341.051 60.8354C341.051 63.3952 340.244 65.6211 338.63 67.5131C337.016 69.3495 334.763 70.7685 331.869 71.7702C328.975 72.7162 325.581 73.1892 321.685 73.1892Z" fill="black"/>
<path d="M54.0305 0.000976562H35.3604V35.3611L54.0305 17.6811V0.000976562Z" fill="black"/>
<path d="M8.16099e-07 54.0305L0 35.3604L35.3602 35.3604L17.6801 54.0305L8.16099e-07 54.0305Z" fill="black"/>
<path d="M89.3901 35.3621L89.3901 54.0322L54.03 54.0322L71.7101 35.3621L89.3901 35.3621Z" fill="black"/>
<rect x="35.2856" y="35.2871" width="18.819" height="54.1048" fill="black"/>
</svg>
